<svg width="107" height="26" viewBox="0 0 107 26" fill="none" xmlns="http://www.w3.org/2000/svg">
<path d="M3.13641 1.72727V25H0.45459V1.72727H3.13641Z" fill="#F1F5F9"/>
<path d="M8.44834 25V7.54545H11.1302V25H8.44834ZM9.81198 4.63636C9.28925 4.63636 8.83849 4.45833 8.4597 4.10227C8.08849 3.74621 7.90289 3.31818 7.90289 2.81818C7.90289 2.31818 8.08849 1.89015 8.4597 1.53409C8.83849 1.17803 9.28925 1 9.81198 1C10.3347 1 10.7817 1.17803 11.1529 1.53409C11.5317 1.89015 11.7211 2.31818 11.7211 2.81818C11.7211 3.31818 11.5317 3.74621 11.1529 4.10227C10.7817 4.45833 10.3347 4.63636 9.81198 4.63636Z" fill="#F1F5F9"/>
<path d="M19.1239 1.72727V25H16.4421V1.72727H19.1239Z" fill="#F1F5F9"/>
<path d="M43.5495 1.72727V25H38.7768L29.5154 11.5682H29.3677V25H23.7427V1.72727H28.5836L37.7427 15.1364H37.9358V1.72727H43.5495Z" fill="#F1F5F9"/>
<path d="M48.3205 25H42.275L50.1273 1.72727H57.616L65.4682 25H59.4228L53.9569 7.59091H53.775L48.3205 25ZM47.5137 15.8409H60.15V20.1136H47.5137V15.8409Z" fill="#F1F5F9"/>
<path d="M76.0347 8.70454C75.9589 7.87121 75.6218 7.22348 75.0233 6.76136C74.4324 6.29167 73.5877 6.05682 72.4893 6.05682C71.762 6.05682 71.1559 6.15151 70.6711 6.34091C70.1862 6.5303 69.8226 6.79167 69.5802 7.125C69.3377 7.45076 69.2127 7.82576 69.2052 8.25C69.19 8.59848 69.2582 8.9053 69.4097 9.17045C69.5688 9.43561 69.7961 9.67045 70.0915 9.875C70.3946 10.072 70.7582 10.2462 71.1824 10.3977C71.6067 10.5492 72.0839 10.6818 72.6143 10.7955L74.6143 11.25C75.7658 11.5 76.7809 11.8333 77.6597 12.25C78.5461 12.6667 79.2885 13.1629 79.887 13.7386C80.493 14.3144 80.9514 14.9773 81.262 15.7273C81.5726 16.4773 81.7317 17.3182 81.7393 18.25C81.7317 19.7197 81.3605 20.9811 80.6256 22.0341C79.8908 23.0871 78.8339 23.8939 77.4552 24.4545C76.0839 25.0152 74.4286 25.2955 72.4893 25.2955C70.5423 25.2955 68.8453 25.0038 67.3983 24.4205C65.9514 23.8371 64.8264 22.9508 64.0233 21.7614C63.2203 20.572 62.8074 19.0682 62.7847 17.25H68.1711C68.2165 18 68.4173 18.625 68.7733 19.125C69.1294 19.625 69.618 20.0038 70.2393 20.2614C70.868 20.5189 71.5953 20.6477 72.4211 20.6477C73.1786 20.6477 73.8226 20.5455 74.3529 20.3409C74.8908 20.1364 75.3036 19.8523 75.5915 19.4886C75.8794 19.125 76.0271 18.7083 76.0347 18.2386C76.0271 17.7992 75.8908 17.4242 75.6256 17.1136C75.3605 16.7955 74.9514 16.5227 74.3983 16.2955C73.8529 16.0606 73.1559 15.8447 72.3074 15.6477L69.8756 15.0795C67.8605 14.6174 66.2733 13.8712 65.1143 12.8409C63.9552 11.803 63.3794 10.4015 63.387 8.63636C63.3794 7.19697 63.7658 5.93561 64.5461 4.85227C65.3264 3.76894 66.4059 2.92424 67.7847 2.31818C69.1635 1.71212 70.7355 1.40909 72.5006 1.40909C74.3036 1.40909 75.868 1.71591 77.1938 2.32954C78.5271 2.93561 79.5612 3.78788 80.2961 4.88636C81.0309 5.98485 81.4059 7.25757 81.4211 8.70454H76.0347Z" fill="#F1F5F9"/>
<path d="M102.279 6.94997C102.061 5.62488 101.414 4.39759 100.429 3.43891C99.444 2.48022 98.1697 1.83785 96.7835 1.60119C95.3972 1.36454 93.9679 1.54537 92.6946 2.11853C91.4213 2.69169 90.3673 3.62865 89.6793 4.79901C89.0118 4.8516 88.3618 5.02888 87.7663 5.32072C87.1708 5.61256 86.6415 6.01325 86.2086 6.49991C85.7757 6.98657 85.4477 7.54968 85.2433 8.15707C85.0389 8.76447 84.9621 9.40425 85.0174 10.0399C85.072 10.6755 85.2574 11.2946 85.5633 11.8619C85.8691 12.4293 86.2893 12.9336 86.7998 13.3463C87.3103 13.759 87.9012 14.0718 88.5386 14.267C89.1761 14.4622 89.8477 14.5358 90.5151 14.4838H101.803C102.323 14.5135 102.843 14.4454 103.334 14.2835C103.826 14.1217 104.279 13.8691 104.668 13.5404C105.057 13.2117 105.374 12.8132 105.602 12.3677C105.829 11.9221 105.962 11.4383 105.993 10.9439C106.056 9.94538 105.7 8.96386 105.003 8.21524C104.307 7.46662 103.326 7.01221 102.278 6.95197L102.279 6.94997Z" fill="#F1F5F9"/>
<path d="M105 17C105.552 17 106 17.4477 106 18V24C106 24.5523 105.552 25 105 25H86C85.4477 25 85 24.5523 85 24V18C85 17.4477 85.4477 17 86 17H105ZM89 20C88.4477 20 88 20.4477 88 21C88 21.5523 88.4477 22 89 22C89.5523 22 90 21.5523 90 21C90 20.4477 89.5523 20 89 20Z" fill="#F1F5F9"/>
</svg>
